HIERARCHY
ROOT hip
{
  OFFSET 0 90.174 2.4664
  CHANNELS 6 Xposition Yposition Zposition Zrotation Xrotation Yrotation
  JOINT abdomen
  {
    OFFSET 0 -1.186 -1.5018
    CHANNELS 6 Xposition Yposition Zposition Zrotation Xrotation Yrotation
    JOINT abdomen2
    {
      OFFSET 0 9.964 0.2134
      CHANNELS 6 Xposition Yposition Zposition Zrotation Xrotation Yrotation
      JOINT chest
      {
        OFFSET 0 13.134 -3.2573
        CHANNELS 6 Xposition Yposition Zposition Zrotation Xrotation Yrotation
        JOINT neck
        {
          OFFSET 0 20.686 -1.6905
          CHANNELS 6 Xposition Yposition Zposition Zrotation Xrotation Yrotation
          JOINT head
          {
            OFFSET 0 7.238 -0.1237
            CHANNELS 6 Xposition Yposition Zposition Zrotation Xrotation Yrotation
            End Site
            {
              OFFSET 0 0 0
            }
          }
        }
        JOINT lCollar
        {
          OFFSET 1.7069 20.075 5.0056
          CHANNELS 6 Xposition Yposition Zposition Zrotation Xrotation Yrotation
          JOINT lShldr
          {
            OFFSET 13.6458 -0.047 -4.849
            CHANNELS 6 Xposition Yposition Zposition Zrotation Xrotation Yrotation
            JOINT lForeArm
            {
              OFFSET 28.3255 -0.9759 2.2888
              CHANNELS 6 Xposition Yposition Zposition Zrotation Xrotation Yrotation
              JOINT lHand
              {
                OFFSET 22.1583 -0.53 10.8316
                CHANNELS 6 Xposition Yposition Zposition Zrotation Xrotation Yrotation
                JOINT lThumb1
                {
                  OFFSET 0.786 0.112 2.5817
                  CHANNELS 6 Xposition Yposition Zposition Zrotation Xrotation Yrotation
                  JOINT lThumb2
                  {
                    OFFSET 0.3601 -0.878 4.2331
                    CHANNELS 6 Xposition Yposition Zposition Zrotation Xrotation Yrotation
                    JOINT lThumb2_End
                    {
                      OFFSET 1.8127 -1.216 2.2227
                      CHANNELS 6 Xposition Yposition Zposition Zrotation Xrotation Yrotation
                      End Site
                      {
                        OFFSET 0.0181 -0.0122 0.0222
                      }
                    }
                  }
                }
                JOINT lCarpal1
                {
                  OFFSET 0.9571 1.114 1.7695
                  CHANNELS 6 Xposition Yposition Zposition Zrotation Xrotation Yrotation
                  JOINT lIndex1
                  {
                    OFFSET 4.1246 0.487 4.1451
                    CHANNELS 6 Xposition Yposition Zposition Zrotation Xrotation Yrotation
                    JOINT lIndex2
                    {
                      OFFSET 3.4052 -1.454 2.7682
                      CHANNELS 6 Xposition Yposition Zposition Zrotation Xrotation Yrotation
                      JOINT lIndex2_End
                      {
                        OFFSET 1.4531 -1.795 1.2713
                        CHANNELS 6 Xposition Yposition Zposition Zrotation Xrotation Yrotation
                        End Site
                        {
                          OFFSET 0.0145 -0.0179 0.0127
                        }
                      }
                    }
                  }
                  JOINT lMid1
                  {
                    OFFSET 5.6954 0.21 2.1184
                    CHANNELS 6 Xposition Yposition Zposition Zrotation Xrotation Yrotation
                    JOINT lMid2
                    {
                      OFFSET 3.9766 -1.54 2.3863
                      CHANNELS 6 Xposition Yposition Zposition Zrotation Xrotation Yrotation
                      JOINT lMid2_End
                      {
                        OFFSET 1.4042 -1.926 1.125
                        CHANNELS 6 Xposition Yposition Zposition Zrotation Xrotation Yrotation
                        End Site
                        {
                          OFFSET 0.014 -0.0193 0.0113
                        }
                      }
                    }
                  }
                }
                JOINT lCarpal2
                {
                  OFFSET 2.0956 0.66 -0.3894
                  CHANNELS 6 Xposition Yposition Zposition Zrotation Xrotation Yrotation
                  JOINT lRing1
                  {
                    OFFSET 5.0395 -0.09 2.4971
                    CHANNELS 6 Xposition Yposition Zposition Zrotation Xrotation Yrotation
                    JOINT lRing2
                    {
                      OFFSET 3.7921 -1.552 1.4806
                      CHANNELS 6 Xposition Yposition Zposition Zrotation Xrotation Yrotation
                      JOINT lRing2_End
                      {
                        OFFSET 1.4655 -1.808 0.9609
                        CHANNELS 6 Xposition Yposition Zposition Zrotation Xrotation Yrotation
                        End Site
                        {
                          OFFSET 0.0147 -0.0181 0.0096
                        }
                      }
                    }
                  }
                  JOINT lPinky1
                  {
                    OFFSET 4.9141 -1.269 0.3591
                    CHANNELS 6 Xposition Yposition Zposition Zrotation Xrotation Yrotation
                    JOINT lPinky2
                    {
                      OFFSET 3.1477 -1.685 0.8462
                      CHANNELS 6 Xposition Yposition Zposition Zrotation Xrotation Yrotation
                      JOINT lPinky2_End
                      {
                        OFFSET 0.8055 -1.585 0.7955
                        CHANNELS 6 Xposition Yposition Zposition Zrotation Xrotation Yrotation
                        End Site
                        {
                          OFFSET 0.0081 -0.0158 0.008
                        }
                      }
                    }
                  }
                }
              }
            }
          }
        }
        JOINT rCollar
        {
          OFFSET -1.7069 20.075 5.0056
          CHANNELS 6 Xposition Yposition Zposition Zrotation Xrotation Yrotation
          JOINT rShldr
          {
            OFFSET -13.6458 -0.047 -4.849
            CHANNELS 6 Xposition Yposition Zposition Zrotation Xrotation Yrotation
            JOINT rForeArm
            {
              OFFSET -28.3255 -0.9759 2.2888
              CHANNELS 6 Xposition Yposition Zposition Zrotation Xrotation Yrotation
              JOINT rHand
              {
                OFFSET -22.1583 -0.53 10.8316
                CHANNELS 6 Xposition Yposition Zposition Zrotation Xrotation Yrotation
                JOINT rThumb1
                {
                  OFFSET -0.786 0.112 2.5817
                  CHANNELS 6 Xposition Yposition Zposition Zrotation Xrotation Yrotation
                  JOINT rThumb2
                  {
                    OFFSET -0.3601 -0.878 4.2331
                    CHANNELS 6 Xposition Yposition Zposition Zrotation Xrotation Yrotation
                    JOINT rThumb2_End
                    {
                      OFFSET -1.8127 -1.216 2.2227
                      CHANNELS 6 Xposition Yposition Zposition Zrotation Xrotation Yrotation
                      End Site
                      {
                        OFFSET -0.0181 -0.0122 0.0222
                      }
                    }
                  }
                }
                JOINT rCarpal1
                {
                  OFFSET -0.9571 1.114 1.7695
                  CHANNELS 6 Xposition Yposition Zposition Zrotation Xrotation Yrotation
                  JOINT rIndex1
                  {
                    OFFSET -4.1246 0.487 4.1451
                    CHANNELS 6 Xposition Yposition Zposition Zrotation Xrotation Yrotation
                    JOINT rIndex2
                    {
                      OFFSET -3.4052 -1.454 2.7682
                      CHANNELS 6 Xposition Yposition Zposition Zrotation Xrotation Yrotation
                      JOINT rIndex2_End
                      {
                        OFFSET -1.4531 -1.795 1.2713
                        CHANNELS 6 Xposition Yposition Zposition Zrotation Xrotation Yrotation
                        End Site
                        {
                          OFFSET -0.0145 -0.018 0.0127
                        }
                      }
                    }
                  }
                  JOINT rMid1
                  {
                    OFFSET -5.6954 0.21 2.1184
                    CHANNELS 6 Xposition Yposition Zposition Zrotation Xrotation Yrotation
                    JOINT rMid2
                    {
                      OFFSET -3.9766 -1.54 2.3863
                      CHANNELS 6 Xposition Yposition Zposition Zrotation Xrotation Yrotation
                      JOINT rMid2_End
                      {
                        OFFSET -1.4042 -1.926 1.125
                        CHANNELS 6 Xposition Yposition Zposition Zrotation Xrotation Yrotation
                        End Site
                        {
                          OFFSET -0.014 -0.0193 0.0113
                        }
                      }
                    }
                  }
                }
                JOINT rCarpal2
                {
                  OFFSET -2.0956 0.66 -0.3894
                  CHANNELS 6 Xposition Yposition Zposition Zrotation Xrotation Yrotation
                  JOINT rRing1
                  {
                    OFFSET -5.0395 -0.09 2.4971
                    CHANNELS 6 Xposition Yposition Zposition Zrotation Xrotation Yrotation
                    JOINT rRing2
                    {
                      OFFSET -3.7921 -1.552 1.4806
                      CHANNELS 6 Xposition Yposition Zposition Zrotation Xrotation Yrotation
                      JOINT rRing2_End
                      {
                        OFFSET -1.4655 -1.808 0.9609
                        CHANNELS 6 Xposition Yposition Zposition Zrotation Xrotation Yrotation
                        End Site
                        {
                          OFFSET -0.0147 -0.0181 0.0096
                        }
                      }
                    }
                  }
                  JOINT rPinky1
                  {
                    OFFSET -4.9141 -1.269 0.3592
                    CHANNELS 6 Xposition Yposition Zposition Zrotation Xrotation Yrotation
                    JOINT rPinky2
                    {
                      OFFSET -3.1477 -1.685 0.8462
                      CHANNELS 6 Xposition Yposition Zposition Zrotation Xrotation Yrotation
                      JOINT rPinky2_End
                      {
                        OFFSET -0.8055 -1.585 0.7955
                        CHANNELS 6 Xposition Yposition Zposition Zrotation Xrotation Yrotation
                        End Site
                        {
                          OFFSET -0.0081 -0.0158 0.008
                        }
                      }
                    }
                  }
                }
              }
            }
          }
        }
      }
    }
  }
  JOINT lThigh
  {
    OFFSET 8.367 -8.2066 0.5982
    CHANNELS 6 Xposition Yposition Zposition Zrotation Xrotation Yrotation
    JOINT lShin
    {
      OFFSET 2.1923 -43.463 -0.4932
      CHANNELS 6 Xposition Yposition Zposition Zrotation Xrotation Yrotation
      JOINT lFoot
      {
        OFFSET 0.7333 -45.8593 -2.6451
        CHANNELS 6 Xposition Yposition Zposition Zrotation Xrotation Yrotation
        End Site
        {
          OFFSET 2.6618 -4.2699 12.3931
        }
      }
    }
  }
  JOINT rThigh
  {
    OFFSET -8.367 -8.2066 0.5982
    CHANNELS 6 Xposition Yposition Zposition Zrotation Xrotation Yrotation
    JOINT rShin
    {
      OFFSET -2.1923 -43.463 -0.4931
      CHANNELS 6 Xposition Yposition Zposition Zrotation Xrotation Yrotation
      JOINT rFoot
      {
        OFFSET -0.7333 -45.8593 -2.6451
        CHANNELS 6 Xposition Yposition Zposition Zrotation Xrotation Yrotation
        End Site
        {
          OFFSET -2.6618 -4.2699 12.3931
        }
      }
    }
  }
}
MOTION
Frames:	4
Frame Time:	0.0333333
0 90.174 2.4664 0 0 -0 0 -1.186 -1.5018 0 0 -0 0 9.964 0.2134 0 0 -0 0 13.134 -3.2573 0 0 -0 0 20.686 -1.6905 0 0 -0 0 7.238 -0.1237 0 0 -0 1.7069 20.075 5.0056 0 0 -0 13.6458 -0.047 -4.849 1.66051 0.0835086 5.75766 28.3255 -0.9759 2.2888 -0.0175111 0.895433 15.7816 22.1583 -0.53 10.8316 7.95139e-016 -1.98785e-016 -0 0.786 0.112 2.5817 5.46658e-016 -3.97569e-016 -0 0.3601 -0.878 4.2331 5.96354e-016 0 -0 1.8127 -1.216 2.2227 3.97569e-016 1.98785e-016 9.54166e-015 0.9571 1.114 1.7695 1.49089e-016 -3.97569e-016 -0 4.1246 0.487 4.1451 6.4605e-016 0 3.18055e-015 3.4052 -1.454 2.7682 5.96354e-016 0 3.18055e-015 1.4531 -1.795 1.2713 8.94531e-016 -1.98785e-016 6.36111e-015 5.6954 0.21 2.1184 6.4605e-016 0 3.18055e-015 3.9766 -1.54 2.3863 5.96354e-016 0 3.18055e-015 1.4042 -1.926 1.125 8.94531e-016 -1.98785e-016 6.36111e-015 2.0956 0.66 -0.3894 1.49089e-016 -3.97569e-016 -0 5.0395 -0.09 2.4971 6.4605e-016 0 3.18055e-015 3.7921 -1.552 1.4806 5.96354e-016 0 3.18055e-015 1.4655 -1.808 0.9609 8.94531e-016 -1.98785e-016 6.36111e-015 4.9141 -1.269 0.3591 6.4605e-016 0 3.18055e-015 3.1477 -1.685 0.8462 5.96354e-016 0 3.18055e-015 0.8055 -1.585 0.7955 8.94531e-016 -1.98785e-016 6.36111e-015 -1.7069 20.075 5.0056 0 0 -0 -13.6458 -0.047 -4.849 -1.4496 0.0636048 -5.0245 -28.3255 -0.9759 2.2888 -1.74811 1.20616 -16.8394 -22.1583 -0.53 10.8316 -1.19271e-015 1.98785e-016 -3.18055e-015 -0.786 0.112 2.5817 -3.97569e-016 1.98785e-016 -3.18055e-015 -0.3601 -0.878 4.2331 -2.98177e-016 1.98785e-016 -3.18055e-015 -1.8127 -1.216 2.2227 -2.98177e-016 3.97569e-016 -0 -0.9571 1.114 1.7695 4.96962e-016 0 -6.36111e-015 -4.1246 0.487 4.1451 -9.93923e-017 3.97569e-016 -0 -3.4052 -1.454 2.7682 -8.94531e-016 5.96354e-016 -0 -1.4531 -1.795 1.2713 -3.97569e-016 3.97569e-016 -0 -5.6954 0.21 2.1184 -9.93923e-017 3.97569e-016 -0 -3.9766 -1.54 2.3863 -8.94531e-016 5.96354e-016 -0 -1.4042 -1.926 1.125 -3.97569e-016 3.97569e-016 -0 -2.0956 0.66 -0.3894 4.96962e-016 0 -6.36111e-015 -5.0395 -0.09 2.4971 -9.93923e-017 3.97569e-016 -0 -3.7921 -1.552 1.4806 -8.94531e-016 5.96354e-016 -0 -1.4655 -1.808 0.9609 -3.97569e-016 3.97569e-016 -0 -4.9141 -1.269 0.3592 -9.93923e-017 3.97569e-016 -0 -3.1477 -1.685 0.8462 -8.94531e-016 5.96354e-016 -0 -0.8055 -1.585 0.7955 -3.97569e-016 3.97569e-016 -0 8.367 -8.2066 0.5982 -4.66115 -1.03232 0.120763 2.1923 -43.463 -0.4932 0.00990601 1.55097 0.177175 0.7333 -45.8593 -2.6451 4.65196 -0.54114 -0.255042 -8.367 -8.2066 0.5982 4.66115 -1.03222 -0.120763 -2.1923 -43.463 -0.4931 -0.00990459 1.5509 -0.177176 -0.7333 -45.8593 -2.6451 -4.65196 -0.541171 0.255041 
-6.73308 0.167053 20.2301 86.0001 -0.00194224 90.0016 -3.55271e-015 -1.186 -1.5018 -0.269737 -0.157541 -0.20651 0 9.964 0.2134 -0.540057 -0.314084 -0.413788 0 13.134 -3.2573 -0.540041 -0.31407 -0.413789 0 20.686 -1.6905 -3.82536e-007 -1.65014e-007 1.36535e-005 -3.55271e-015 7.238 -0.1237 -9.36258e-007 2.04455e-006 17.9983 1.7069 20.075 5.0056 -8.00956 -0.0485709 0.268285 13.6458 -0.047 -4.849 24.6576 -0.0355308 1.75328 28.3255 -0.9759 2.2888 -47.571 8.31149 -56.6086 22.1583 -0.53 10.8316 -23.7118 -9.00458 1.10517 0.786 0.112 2.5817 -1.59028e-015 -3.18055e-015 -2.38542e-015 0.3601 -0.878 4.2331 -1.45705e-006 -1.20661e-006 -2.83183e-006 1.8127 -1.216 2.2227 -3.95224e-006 -2.13397e-006 6.95254e-006 0.9571 1.114 1.7695 1.59028e-015 -9.54166e-015 -7.95139e-016 4.1246 0.487 4.1451 -3.18055e-015 3.18055e-015 3.18055e-015 3.4052 -1.454 2.7682 -1.45705e-006 -1.20661e-006 -2.83183e-006 1.4531 -1.795 1.2713 -3.95224e-006 -2.13397e-006 6.95254e-006 5.6954 0.21 2.1184 -3.18055e-015 3.18055e-015 3.18055e-015 3.9766 -1.54 2.3863 -1.45705e-006 -1.20661e-006 -2.83183e-006 1.4042 -1.926 1.125 -3.95224e-006 -2.13397e-006 6.95254e-006 2.0956 0.66 -0.3894 1.59028e-015 -9.54166e-015 -7.95139e-016 5.0395 -0.09 2.4971 -3.18055e-015 3.18055e-015 3.18055e-015 3.7921 -1.552 1.4806 -1.45705e-006 -1.20661e-006 -2.83183e-006 1.4655 -1.808 0.9609 -3.95224e-006 -2.13397e-006 6.95254e-006 4.9141 -1.269 0.3591 -3.18055e-015 3.18055e-015 3.18055e-015 3.1477 -1.685 0.8462 -1.45705e-006 -1.20661e-006 -2.83183e-006 0.8055 -1.585 0.7955 -3.95224e-006 -2.13397e-006 6.95254e-006 -1.7069 20.075 5.0056 7.99915 -0.194695 -0.00216225 -13.6458 -0.047 -4.849 68.8673 18.4516 -0.323471 -28.3255 -0.9759 2.2888 7.2017 -11.7596 99.3641 -22.1583 -0.53 10.8316 6.62237 2.66098 0.0228824 -0.786 0.112 2.5817 -1.59028e-015 1.59028e-015 -3.97569e-016 -0.3601 -0.878 4.2331 -3.18055e-015 3.18055e-015 1.19271e-015 -1.8127 -1.216 2.2227 -3.18055e-015 3.18055e-015 3.97569e-016 -0.9571 1.114 1.7695 0 0 -7.95139e-016 -4.1246 0.487 4.1451 -4.77083e-015 6.36111e-015 2.50469e-014 -3.4052 -1.454 2.7682 -3.18055e-015 3.18055e-015 7.95139e-016 -1.4531 -1.795 1.2713 -3.18055e-015 3.18055e-015 7.95139e-016 -5.6954 0.21 2.1184 -4.77083e-015 6.36111e-015 2.50469e-014 -3.9766 -1.54 2.3863 -3.18055e-015 3.18055e-015 7.95139e-016 -1.4042 -1.926 1.125 -3.18055e-015 3.18055e-015 7.95139e-016 -2.0956 0.66 -0.3894 0 0 -7.95139e-016 -5.0395 -0.09 2.4971 -4.77083e-015 6.36111e-015 2.50469e-014 -3.7921 -1.552 1.4806 -3.18055e-015 3.18055e-015 7.95139e-016 -1.4655 -1.808 0.9609 -3.18055e-015 3.18055e-015 7.95139e-016 -4.9141 -1.269 0.3592 -4.77083e-015 6.36111e-015 2.50469e-014 -3.1477 -1.685 0.8462 -3.18055e-015 3.18055e-015 7.95139e-016 -0.8055 -1.585 0.7955 -3.18055e-015 3.18055e-015 7.95139e-016 8.367 -8.2066 0.5982 6.13331 -27.0885 5.98046 2.1923 -43.463 -0.4932 -3.19041 55.7609 4.67772 0.7333 -45.8593 -2.6451 8.29139 11.1132 1.05288 -8.367 -8.2066 0.5982 -18.9261 -5.42749 -3.64254 -2.1923 -43.463 -0.4931 2.11914 9.98232 -2.29477 -0.7333 -45.8593 -2.6451 -8.96787 30.8415 3.23237 
-6.73308 0.167053 20.2301 86.0001 -0.00194224 90.0016 0 -1.186 -1.5018 -0.269735 -0.15757 -0.206498 -3.55271e-015 9.964 0.2134 -0.540057 -0.314084 -0.413788 0 13.134 -3.2573 -0.540041 -0.31407 -0.413788 0 20.686 -1.6905 -4.56512e-005 -0.000132167 2.27356e-005 3.55271e-015 7.238 -0.1237 2.06366e-005 0.2303 17.9984 1.7069 20.075 5.0056 -8.00956 -0.0485731 0.268284 13.6458 -0.047 -4.849 24.6576 -0.0355123 1.75327 28.3255 -0.9759 2.2888 -47.5709 8.31148 -56.6086 22.1583 -0.53 10.8316 -23.7118 -9.00458 1.10517 0.786 0.112 2.5817 -4.77083e-015 -3.18055e-015 -7.15625e-015 0.3601 -0.878 4.2331 3.0862e-006 -2.57746e-006 -2.50438e-007 1.8127 -1.216 2.2227 -1.12041e-006 -1.87959e-006 5.49549e-006 0.9571 1.114 1.7695 -3.18055e-015 0 -6.36111e-015 4.1246 0.487 4.1451 -1.59028e-015 0 1.43125e-014 3.4052 -1.454 2.7682 3.0862e-006 -2.57746e-006 -2.50438e-007 1.4531 -1.795 1.2713 -1.12041e-006 -1.87959e-006 5.49549e-006 5.6954 0.21 2.1184 -1.59028e-015 0 1.43125e-014 3.9766 -1.54 2.3863 3.0862e-006 -2.57746e-006 -2.50438e-007 1.4042 -1.926 1.125 -1.12041e-006 -1.87959e-006 5.49549e-006 2.0956 0.66 -0.3894 -3.18055e-015 0 -6.36111e-015 5.0395 -0.09 2.4971 -1.59028e-015 0 1.43125e-014 3.7921 -1.552 1.4806 3.0862e-006 -2.57746e-006 -2.50438e-007 1.4655 -1.808 0.9609 -1.12041e-006 -1.87959e-006 5.49549e-006 4.9141 -1.269 0.3591 -1.59028e-015 0 1.43125e-014 3.1477 -1.685 0.8462 3.0862e-006 -2.57746e-006 -2.50438e-007 0.8055 -1.585 0.7955 -1.12041e-006 -1.87959e-006 5.49549e-006 -1.7069 20.075 5.0056 7.99915 -0.194694 -0.0021557 -13.6458 -0.047 -4.849 68.8673 18.4516 -0.323463 -28.3255 -0.9759 2.2888 7.17603 -11.8192 99.0994 -22.1583 -0.53 10.8316 6.6221 2.66088 0.0228803 -0.786 0.112 2.5817 1.59028e-015 -3.18055e-015 -1.59028e-015 -0.3601 -0.878 4.2331 1.59028e-015 -3.18055e-015 -1.19271e-015 -1.8127 -1.216 2.2227 -1.59028e-015 -1.59028e-015 -0 -0.9571 1.114 1.7695 1.59028e-015 0 -1.59028e-015 -4.1246 0.487 4.1451 -1.59028e-015 0 1.23246e-014 -3.4052 -1.454 2.7682 6.62086e-032 -4.77083e-015 7.95139e-016 -1.4531 -1.795 1.2713 1.59028e-015 -4.77083e-015 7.95139e-016 -5.6954 0.21 2.1184 -1.59028e-015 0 1.23246e-014 -3.9766 -1.54 2.3863 6.62086e-032 -4.77083e-015 7.95139e-016 -1.4042 -1.926 1.125 1.59028e-015 -4.77083e-015 7.95139e-016 -2.0956 0.66 -0.3894 1.59028e-015 0 -1.59028e-015 -5.0395 -0.09 2.4971 -1.59028e-015 0 1.23246e-014 -3.7921 -1.552 1.4806 6.62086e-032 -4.77083e-015 7.95139e-016 -1.4655 -1.808 0.9609 1.59028e-015 -4.77083e-015 7.95139e-016 -4.9141 -1.269 0.3592 -1.59028e-015 0 1.23246e-014 -3.1477 -1.685 0.8462 6.62086e-032 -4.77083e-015 7.95139e-016 -0.8055 -1.585 0.7955 1.59028e-015 -4.77083e-015 7.95139e-016 8.367 -8.2066 0.5982 6.13329 -27.0885 5.98047 2.1923 -43.463 -0.4932 -3.19035 55.7609 4.67769 0.7333 -45.8593 -2.6451 8.2914 11.1132 1.05289 -8.367 -8.2066 0.5982 -18.9261 -5.42732 -3.64248 -2.1923 -43.463 -0.4931 2.11914 9.98195 -2.29477 -0.7333 -45.8593 -2.6451 -8.96787 30.8416 3.23238 
-6.73308 0.167053 20.2301 86.0001 -0.00194224 90.0016 0 -1.186 -1.5018 -0.269735 -0.15757 -0.206498 0 9.964 0.2134 -0.540057 -0.314084 -0.413788 0 13.134 -3.2573 -0.540041 -0.31407 -0.413788 0 20.686 -1.6905 -4.56512e-005 -0.000132167 2.27356e-005 3.55271e-015 7.238 -0.1237 4.07213e-006 0.460728 17.9984 1.7069 20.075 5.0056 -8.00956 -0.0485731 0.268284 13.6458 -0.047 -4.849 24.6576 -0.035525 1.75329 28.3255 -0.9759 2.2888 -47.5709 8.31149 -56.6086 22.1583 -0.53 10.8316 -23.7118 -9.00458 1.10517 0.786 0.112 2.5817 1.90447e-006 2.74956e-006 -2.92197e-006 0.3601 -0.878 4.2331 -1.45705e-006 -1.20661e-006 -2.83183e-006 1.8127 -1.216 2.2227 -7.28524e-007 -6.03306e-007 -1.41592e-006 0.9571 1.114 1.7695 3.08973e-031 -3.18055e-015 5.56597e-015 4.1246 0.487 4.1451 1.90447e-006 2.74956e-006 -2.92197e-006 3.4052 -1.454 2.7682 -1.45705e-006 -1.20661e-006 -2.83183e-006 1.4531 -1.795 1.2713 -7.28524e-007 -6.03306e-007 -1.41592e-006 5.6954 0.21 2.1184 1.90447e-006 2.74956e-006 -2.92197e-006 3.9766 -1.54 2.3863 -1.45705e-006 -1.20661e-006 -2.83183e-006 1.4042 -1.926 1.125 -7.28524e-007 -6.03306e-007 -1.41592e-006 2.0956 0.66 -0.3894 3.08973e-031 -3.18055e-015 5.56597e-015 5.0395 -0.09 2.4971 1.90447e-006 2.74956e-006 -2.92197e-006 3.7921 -1.552 1.4806 -1.45705e-006 -1.20661e-006 -2.83183e-006 1.4655 -1.808 0.9609 -7.28524e-007 -6.03306e-007 -1.41592e-006 4.9141 -1.269 0.3591 1.90447e-006 2.74956e-006 -2.92197e-006 3.1477 -1.685 0.8462 -1.45705e-006 -1.20661e-006 -2.83183e-006 0.8055 -1.585 0.7955 -7.28524e-007 -6.03306e-007 -1.41592e-006 -1.7069 20.075 5.0056 7.99915 -0.194694 -0.0021557 -13.6458 -0.047 -4.849 68.8673 18.4516 -0.323467 -28.3255 -0.9759 2.2888 7.15001 -11.8789 98.8339 -22.1583 -0.53 10.8316 6.62185 2.66077 0.0229012 -0.786 0.112 2.5817 5.73561e-006 -1.55562e-006 -9.47162e-007 -0.3601 -0.878 4.2331 -3.18055e-015 0 -1.98785e-015 -1.8127 -1.216 2.2227 -3.18055e-015 0 -1.98785e-015 -0.9571 1.114 1.7695 -2.20695e-032 -1.59028e-015 -7.95139e-016 -4.1246 0.487 4.1451 5.73561e-006 -1.55562e-006 -9.47162e-007 -3.4052 -1.454 2.7682 1.59028e-015 0 -7.95139e-016 -1.4531 -1.795 1.2713 4.41391e-032 1.59028e-015 -1.59028e-015 -5.6954 0.21 2.1184 5.73561e-006 -1.55562e-006 -9.47162e-007 -3.9766 -1.54 2.3863 1.59028e-015 0 -7.95139e-016 -1.4042 -1.926 1.125 4.41391e-032 1.59028e-015 -1.59028e-015 -2.0956 0.66 -0.3894 -2.20695e-032 -1.59028e-015 -7.95139e-016 -5.0395 -0.09 2.4971 5.73561e-006 -1.55562e-006 -9.47162e-007 -3.7921 -1.552 1.4806 1.59028e-015 0 -7.95139e-016 -1.4655 -1.808 0.9609 4.41391e-032 1.59028e-015 -1.59028e-015 -4.9141 -1.269 0.3592 5.73561e-006 -1.55562e-006 -9.47162e-007 -3.1477 -1.685 0.8462 1.59028e-015 0 -7.95139e-016 -0.8055 -1.585 0.7955 4.41391e-032 1.59028e-015 -1.59028e-015 8.367 -8.2066 0.5982 6.13329 -27.0884 5.98045 2.1923 -43.463 -0.4932 -3.19045 55.7609 4.67776 0.7333 -45.8593 -2.6451 8.2914 11.1132 1.05288 -8.367 -8.2066 0.5982 -18.9262 -5.42726 -3.64243 -2.1923 -43.463 -0.4931 2.11917 9.98188 -2.29479 -0.7333 -45.8593 -2.6451 -8.9679 30.8415 3.23239 
